# xmcd
#
# Track frame offsets:
#	150
#	16257
#	35001
#	54362
#	73802
#	93569
#	115773
#	132466
#	152415
#	172478
#	188481
#	206314
#	224882
#	244267
#	268432
#	282558
#	305414
#
# Disc length: 4303 seconds
#
# Revision: 1
# Processed by: cddbd v1.5.1PL0 Copyright (c) Steve Scherf et al.
# Submitted via: audiograbber 1.82.02
#
DISCID=0b10cd11
DTITLE=Pino Daniele - The Platinum Collection cd3
DYEAR=2004
DGENRE=Blues
TTITLE0=Quando
TTITLE1='O scaraffone
TTITLE2=Gente distratta
TTITLE3=Che Dio ti benedica
TTITLE4=Jesce juorno
TTITLE5=Anna verrà
TTITLE6=Carte e cartuscelle
TTITLE7=Un uomo in blues
TTITLE8='O cammello 'nnamurato
TTITLE9=Io per lei
TTITLE10=Femmena
TTITLE11=Che male c'è
TTITLE12=Sicily
TTITLE13=Stress
TTITLE14=Se mi vuoi
TTITLE15=Senza peccato
TTITLE16=O ssaje comme fa 'o core
EXTD=
EXTT0=
EXTT1=
EXTT2=
EXTT3=
EXTT4=
EXTT5=
EXTT6=
EXTT7=
EXTT8=
EXTT9=
EXTT10=
EXTT11=
EXTT12=
EXTT13=
EXTT14=
EXTT15=
EXTT16=
PLAYORDER=
